# xmcd CD database file
#
# Track frame offsets:
#	187
#	12510
#	27962
#	52475
#	67007
#	87837
#	96317
#	110077
#	125515
#	142827
#	158642
#	171525
#	183127
#	197035
#	212102
#	224600
#	237127
#	247507
#
# Disc length: 3619 seconds
#
# Revision: 4
# Processed by: cddbd v1.5.2PL0 Copyright (c) Steve Scherf et al.
# Submitted via: CDex 1.70beta2
#
DISCID=070e2112
DTITLE=Oscar Peterson - The Best Of Oscar Peterson
DYEAR=1900
DGENRE=Jazz
TTITLE0=The Days Of Wine And Roses
TTITLE1=C Jam Blues
TTITLE2=Satin Doll
TTITLE3=Fly Me To The Moon
TTITLE4=Tonight
TTITLE5=Just In Time
TTITLE6=I Get A Kick Out Of You
TTITLE7=All Of Me
TTITLE8=Summertime
TTITLE9=Love For Sale
TTITLE10=I've Got You Under My Skin
TTITLE11=Night And Day
TTITLE12=Take The "A" Train
TTITLE13=Yesterdays
TTITLE14=Blue Moon
TTITLE15=My Funny Valentine
TTITLE16=Over The Rainbow
TTITLE17=I Could Have Danced All Night
EXTD=
EXTT0=
EXTT1=
EXTT2=
EXTT3=
EXTT4=
EXTT5=
EXTT6=
EXTT7=
EXTT8=
EXTT9=
EXTT10=
EXTT11=
EXTT12=
EXTT13=
EXTT14=
EXTT15=
EXTT16=
EXTT17=
PLAYORDER=
